<svg xmlns="http://www.w3.org/2000/svg" width="16" height="16" viewBox="0 0 16 16" shape-rendering="crispEdges">
  <rect x="5" y="1" width="6" height="1" fill="#9ab0c8"/>
  <rect x="3" y="2" width="2" height="1" fill="#9ab0c8"/>
  <rect x="11" y="2" width="2" height="1" fill="#9ab0c8"/>
  <rect x="2" y="3" width="1" height="2" fill="#9ab0c8"/>
  <rect x="13" y="3" width="1" height="2" fill="#9ab0c8"/>
  <rect x="1" y="5" width="1" height="6" fill="#9ab0c8"/>
  <rect x="14" y="5" width="1" height="6" fill="#9ab0c8"/>
  <rect x="2" y="11" width="1" height="2" fill="#9ab0c8"/>
  <rect x="13" y="11" width="1" height="2" fill="#9ab0c8"/>
  <rect x="3" y="13" width="2" height="1" fill="#9ab0c8"/>
  <rect x="11" y="13" width="2" height="1" fill="#9ab0c8"/>
  <rect x="5" y="14" width="6" height="1" fill="#9ab0c8"/>
  <rect x="7" y="4" width="2" height="5" fill="#d8e4ef"/>
  <rect x="8" y="8" width="4" height="2" fill="#d8e4ef"/>
  <rect x="7" y="7" width="3" height="3" fill="#6f8ba7"/>
</svg>
